<svg width="100" height="100" viewBox="0 0 100 100" fill="none" xmlns="http://www.w3.org/2000/svg">
<g clip-path="url(#clip0_101_4292)">
<path d="M68.75 0H31.25C22.962 0 15.0134 3.2924 9.15291 9.15291C3.2924 15.0134 0 22.962 0 31.25L0 68.75C0 77.038 3.2924 84.9866 9.15291 90.8471C15.0134 96.7076 22.962 100 31.25 100H68.75C77.038 100 84.9866 96.7076 90.8471 90.8471C96.7076 84.9866 100 77.038 100 68.75V31.25C100 22.962 96.7076 15.0134 90.8471 9.15291C84.9866 3.2924 77.038 0 68.75 0ZM90.625 68.75C90.625 80.8125 80.8125 90.625 68.75 90.625H31.25C19.1875 90.625 9.375 80.8125 9.375 68.75V31.25C9.375 19.1875 19.1875 9.375 31.25 9.375H68.75C80.8125 9.375 90.625 19.1875 90.625 31.25V68.75Z" fill="#2C5043"/>
<path d="M50 25C43.3696 25 37.0107 27.6339 32.3223 32.3223C27.6339 37.0107 25 43.3696 25 50C25 56.6304 27.6339 62.9893 32.3223 67.6777C37.0107 72.3661 43.3696 75 50 75C56.6304 75 62.9893 72.3661 67.6777 67.6777C72.3661 62.9893 75 56.6304 75 50C75 43.3696 72.3661 37.0107 67.6777 32.3223C62.9893 27.6339 56.6304 25 50 25ZM50 65.625C45.8575 65.62 41.8861 63.9722 38.9569 61.0431C36.0278 58.1139 34.38 54.1425 34.375 50C34.375 41.3813 41.3875 34.375 50 34.375C58.6125 34.375 65.625 41.3813 65.625 50C65.625 58.6125 58.6125 65.625 50 65.625Z" fill="#2C5043"/>
<path d="M76.8742 26.4633C78.714 26.4633 80.2055 24.9718 80.2055 23.132C80.2055 21.2922 78.714 19.8008 76.8742 19.8008C75.0344 19.8008 73.543 21.2922 73.543 23.132C73.543 24.9718 75.0344 26.4633 76.8742 26.4633Z" fill="#2C5043"/>
</g>
<defs>
<clipPath id="clip0_101_4292">
<rect width="100" height="100" fill="white"/>
</clipPath>
</defs>
</svg>
